<svg width="90" height="138" viewBox="0 0 90 138" fill="none" xmlns="http://www.w3.org/2000/svg">
<path d="M89.7676 0.826172C84.429 3.44206 81.7598 7.95312 81.7598 14.3594V124.627C81.7598 131.247 84.2689 135.518 89.2871 137.439V138H50.7695V137.52C55.5208 135.865 57.8965 131.62 57.8965 124.787L57.9766 66.4102H57.2559L42.6016 136.318H40.0391L27.8672 66.8105H27.2266V122.945C27.2266 126.522 28.2142 129.725 30.1895 132.555C32.0046 135.064 34.1133 136.745 36.5156 137.6V138H0V137.6C6.19271 135.144 9.28906 130.232 9.28906 122.865V14.4395C9.28906 6.75195 6.77995 2.13411 1.76172 0.585938V0.185547H37.7168V0.585938C35.528 1.33333 34.7272 3.46875 35.3145 6.99219L44.2031 59.6836L54.9336 7.87305C55.6276 4.61654 55.1738 2.40104 53.5723 1.22656L53.4922 0.185547H89.7676V0.826172Z" fill="#C10005"/>
</svg>
